<svg xmlns="http://www.w3.org/2000/svg" width="206" height="23.124" viewBox="0 0 206 23.124"><g transform="translate(-333.101 -792.119)"><g transform="translate(333.101 792.119)"><g transform="translate(25.169 0)"><g transform="translate(51.349)"><path d="M812.24,816.877V794.519H825.3v2.14H814.476v7.6h7.314v2.108h-7.314v10.508Z" transform="translate(-812.24 -794.136)" fill="#2a292d"/><path d="M1025.7,815.243a8.9,8.9,0,0,1-4.232-.974,7.636,7.636,0,0,1-2.907-2.635,12.631,12.631,0,0,1-1.6-3.673,16.832,16.832,0,0,1-.527-4.28,16.39,16.39,0,0,1,.942-5.733,9.22,9.22,0,0,1,3.082-4.184,8.339,8.339,0,0,1,5.238-1.645,7.96,7.96,0,0,1,4.28.974,8.081,8.081,0,0,1,2.555,2.635l-1.98,1.15a7.653,7.653,0,0,0-2-2.012,5.065,5.065,0,0,0-2.859-.734,6.135,6.135,0,0,0-3.226.846,5.85,5.85,0,0,0-2.172,2.268,12.366,12.366,0,0,0-1.15,3.05,14.743,14.743,0,0,0-.383,3.386,14.944,14.944,0,0,0,.687,4.679,7.643,7.643,0,0,0,2.3,3.481,5.835,5.835,0,0,0,3.945,1.39,5.66,5.66,0,0,0,5.174-2.843l1.98.767a7.284,7.284,0,0,1-2.667,2.922A8.105,8.105,0,0,1,1025.7,815.243Z" transform="translate(-983.83 -792.119)" fill="#2a292d"/><path d="M1149.609,796.659v20.218h-2.236V796.659h-6.133v-2.14h14.532v2.14Z" transform="translate(-1088.7 -794.136)" fill="#2a292d"/><path d="M1261.848,814.237a9.88,9.88,0,0,1-8.688,0,7.48,7.48,0,0,1-2.89-2.715,13.267,13.267,0,0,1-1.533-3.673,17.792,17.792,0,0,1,0-8.336,13.275,13.275,0,0,1,1.533-3.673,7.485,7.485,0,0,1,2.89-2.715,9.88,9.88,0,0,1,8.688,0,7.486,7.486,0,0,1,2.89,2.715,13.316,13.316,0,0,1,1.533,3.673,17.8,17.8,0,0,1,0,8.336,13.309,13.309,0,0,1-1.533,3.673A7.481,7.481,0,0,1,1261.848,814.237Zm-4.344-1.006a6.108,6.108,0,0,0,3.242-.846,6,6,0,0,0,2.172-2.268,11.567,11.567,0,0,0,1.15-3.05,15.377,15.377,0,0,0,.367-3.386,16.044,16.044,0,0,0-.623-4.647,7.409,7.409,0,0,0-2.236-3.481,5.935,5.935,0,0,0-4.072-1.421,6.11,6.11,0,0,0-3.242.846,6.009,6.009,0,0,0-2.172,2.268,11.554,11.554,0,0,0-1.15,3.05,15.336,15.336,0,0,0-.367,3.386,16.051,16.051,0,0,0,.623,4.647,7.408,7.408,0,0,0,2.236,3.481A5.932,5.932,0,0,0,1257.5,813.231Z" transform="translate(-1178.613 -792.119)" fill="#2a292d"/><path d="M1525.154,816.877v-8.783l-7.314-13.574h2.459l5.941,11.5,6.1-11.5h2.3L1527.39,808v8.879Z" transform="translate(-1405.158 -794.136)" fill="#2a292d"/></g><path d="M506.5,796.595q-1.9-2.076-5.893-2.076h-9.9v4.6H500.8a2.314,2.314,0,0,1,1.948.782,2.866,2.866,0,0,1,.607,1.8,2.755,2.755,0,0,1-.639,1.82,2.353,2.353,0,0,1-1.916.767H490.7v12.584h4.855V808.86h5.046a9.31,9.31,0,0,0,3.546-.639,6.246,6.246,0,0,0,2.459-1.693,7.462,7.462,0,0,0,1.341-2.284,7.372,7.372,0,0,0,.447-2.539A7.292,7.292,0,0,0,506.5,796.595Z" transform="translate(-490.704 -794.136)" fill="#2a292d"/><path d="M624.157,799.122v0h11.211v-4.6H619.3v4.6Z" transform="translate(-598.765 -794.136)" fill="#2a292d"/><g transform="translate(20.537 8.911)"><path d="M628.5,852.518v-4.6l-9.2,0v4.6Z" transform="translate(-619.302 -847.919)" fill="#2a292d"/><path d="M624.157,905.5v0H619.3v4.636h16.7V905.5Z" transform="translate(-619.302 -896.298)" fill="#2a292d"/></g><path d="M899.527,794.519H897.8l-7.761,22.358h2.332l1.948-5.781.671-1.98,3.066-8.943a11.637,11.637,0,0,0,.351-1.182l.255-.83a20.146,20.146,0,0,0,.639,2.012l3.066,8.943.671,1.98,2.044,5.781h2.268Z" transform="translate(-826.268 -794.136)" fill="#2a292d"/></g><g transform="translate(0 0.383)"><path d="M347.464,809.787h5.158l-6.042-15.268h-4.663L333.1,816.877h5.3l1.189-3.11,2.069-5.705,1.916-4.823a15.465,15.465,0,0,0,.671-1.885,17.229,17.229,0,0,0,.671,1.885l1.916,4.823Z" transform="translate(-333.101 -794.519)" fill="#2a292d"/><path d="M431.4,912.817l1.325,3.466h5.3l-1.371-3.466Z" transform="translate(-415.705 -893.925)" fill="#2a292d"/></g></g><path d="M1413.006,804.628a6.609,6.609,0,0,0-.287-8.336q-1.629-1.773-5.27-1.773h-8.208v2.012h8.272a4.481,4.481,0,0,1,3.593,1.293,4.386,4.386,0,0,1,1.1,2.923,4.093,4.093,0,0,1-1.134,2.922,4.7,4.7,0,0,1-3.561,1.2h-8.272v2.012h7.282l4.791,10h2.459l-4.951-10.093A6.311,6.311,0,0,0,1413.006,804.628Z" transform="translate(-895.879 -2.017)" fill="#2a292d"/></g></svg>